<svg width="266" height="162" viewBox="0 0 266 162" fill="none" xmlns="http://www.w3.org/2000/svg">
<path d="M45.0493 128.053C52.7872 138.077 62.8777 146.037 74.427 151.229C85.9762 156.421 98.6278 158.685 111.261 157.82C123.894 156.955 136.119 152.988 146.852 146.269C157.586 139.551 166.497 130.289 172.796 119.305C179.096 108.32 182.589 95.9512 182.966 83.2941C183.343 70.637 180.593 58.0822 174.959 46.7418C169.325 35.4014 160.982 25.6254 150.667 18.2798C140.353 10.9342 128.386 6.24572 115.827 4.62964L112.879 27.5407C121.67 28.672 130.047 31.9539 137.267 37.0959C144.487 42.2378 150.328 49.081 154.271 57.0193C158.215 64.9575 160.14 73.7459 159.876 82.6059C159.612 91.4659 157.167 100.124 152.757 107.813C148.348 115.503 142.11 121.986 134.597 126.688C127.083 131.391 118.526 134.168 109.683 134.774C100.839 135.38 91.9834 133.795 83.8989 130.16C75.8144 126.526 68.751 120.954 63.3345 113.937L45.0493 128.053Z" fill="#D9D9D9"/>
<path d="M148.227 145.389C158.816 138.444 167.528 128.996 173.593 117.88C179.658 106.764 182.888 94.3243 182.997 81.662C183.106 68.9997 180.09 56.5061 174.217 45.2876C168.345 34.0692 159.796 24.4723 149.328 17.347C138.86 10.2217 126.796 5.78795 114.206 4.43848C101.615 3.08903 88.8861 4.8655 77.1461 9.61056C65.406 14.3556 55.0174 21.9228 46.9004 31.6418C38.7834 41.3608 33.1885 52.9316 30.6115 65.3293L53.228 70.0305C55.032 61.3521 58.9484 53.2525 64.6303 46.4492C70.3122 39.646 77.5842 34.3489 85.8023 31.0274C94.0203 27.7058 102.931 26.4623 111.744 27.4069C120.558 28.3516 129.002 31.4552 136.329 36.4429C143.657 41.4306 149.641 48.1484 153.752 56.0013C157.863 63.8542 159.974 72.5998 159.898 81.4634C159.822 90.327 157.561 99.035 153.315 106.816C149.07 114.597 142.971 121.211 135.559 126.072L148.227 145.389Z" fill="#95F2ED"/>
<path d="M177.148 110.445C181.99 98.7447 183.872 86.0307 182.627 73.4293C181.382 60.828 177.048 48.7281 170.01 38.2016C162.972 27.6751 153.446 19.0468 142.277 13.081C131.108 7.11524 118.639 3.99615 105.977 3.99999C93.3138 4.00385 80.8475 7.13055 69.6818 13.1031C58.5161 19.0757 48.9957 27.7098 41.9638 38.2406C34.932 48.7714 30.6058 60.8739 29.3685 73.476C28.1312 86.0781 30.0209 98.7909 34.8703 110.488L56.2092 101.642C52.8146 93.4536 51.4918 84.5547 52.3579 75.7332C53.2241 66.9117 56.2524 58.44 61.1747 51.0684C66.097 43.6968 72.7613 37.653 80.5772 33.4722C88.3932 29.2914 97.1197 27.1027 105.984 27.1C114.847 27.0973 123.575 29.2807 131.394 33.4567C139.212 37.6327 145.88 43.6725 150.807 51.0411C155.734 58.4097 158.767 66.8796 159.639 75.7005C160.51 84.5215 159.193 93.4213 155.803 101.611L177.148 110.445Z" fill="#54DED6"/>
<path d="M146.5 10.8519C134.964 4.19168 121.964 0.47921 108.65 0.0433732C95.3368 -0.392464 82.1214 2.46179 70.1746 8.35331C58.2278 14.2448 47.9183 22.9918 40.1594 33.8193C32.4005 44.6469 27.4316 57.2208 25.693 70.4274C23.9543 83.634 25.4994 97.0655 30.1916 109.532C34.8838 121.999 42.5781 133.116 52.593 141.899C62.6079 150.682 74.6343 156.859 87.6068 159.884C100.579 162.909 114.098 162.688 126.964 159.24L118.579 127.944C110.859 130.013 102.748 130.145 94.9641 128.33C87.1805 126.516 79.9647 122.809 73.9558 117.539C67.9468 112.27 63.3303 105.599 60.515 98.1194C57.6997 90.6393 56.7726 82.5804 57.8158 74.6564C58.859 66.7325 61.8403 59.1881 66.4956 52.6916C71.151 46.1951 77.3367 40.9469 84.5048 37.412C91.6728 33.8771 99.6021 32.1645 107.59 32.426C115.578 32.6875 123.378 34.915 130.3 38.9112L146.5 10.8519Z" fill="#00B1A6"/>
<circle cx="25" cy="81" r="23" fill="white" stroke="#00B1A6" stroke-width="4"/>
<path d="M13.5132 86.2031C12.7769 86.2031 12.1294 86.091 11.5708 85.8667C11.0122 85.6382 10.5763 85.3229 10.2632 84.9209C9.95003 84.5146 9.79346 84.047 9.79346 83.5181V83.5054C9.79346 83.1076 9.88444 82.7479 10.0664 82.4263C10.2526 82.1047 10.5065 81.8381 10.8281 81.6265C11.1497 81.4106 11.5179 81.2625 11.9326 81.1821V81.144C11.3952 81.0129 10.9593 80.7674 10.625 80.4077C10.2949 80.0438 10.1299 79.6121 10.1299 79.1128V79.1001C10.1299 78.6261 10.2738 78.2051 10.5615 77.8369C10.8493 77.4645 11.2471 77.1725 11.7549 76.9609C12.2627 76.7451 12.8488 76.6372 13.5132 76.6372C14.1776 76.6372 14.7637 76.7451 15.2715 76.9609C15.7793 77.1725 16.1771 77.4645 16.4648 77.8369C16.7526 78.2051 16.8965 78.6261 16.8965 79.1001V79.1128C16.8965 79.6121 16.7293 80.0438 16.395 80.4077C16.0607 80.7674 15.627 81.0129 15.0938 81.144V81.1821C15.5085 81.2625 15.8766 81.4106 16.1982 81.6265C16.5199 81.8381 16.7716 82.1047 16.9536 82.4263C17.1398 82.7479 17.2329 83.1076 17.2329 83.5054V83.5181C17.2329 84.047 17.0763 84.5146 16.7632 84.9209C16.45 85.3229 16.012 85.6382 15.4492 85.8667C14.8906 86.091 14.2453 86.2031 13.5132 86.2031ZM13.5132 84.8066C13.8475 84.8066 14.1437 84.7474 14.4019 84.6289C14.66 84.5062 14.861 84.339 15.0049 84.1274C15.153 83.9116 15.2271 83.6662 15.2271 83.3911V83.3784C15.2271 83.1034 15.1551 82.86 15.0112 82.6484C14.8674 82.4326 14.6663 82.2633 14.4082 82.1406C14.1501 82.0179 13.8517 81.9565 13.5132 81.9565C13.1746 81.9565 12.8763 82.0179 12.6182 82.1406C12.36 82.2633 12.1569 82.4326 12.0088 82.6484C11.8649 82.86 11.793 83.1034 11.793 83.3784V83.3911C11.793 83.6662 11.867 83.9116 12.0151 84.1274C12.1632 84.339 12.3664 84.5062 12.6245 84.6289C12.8826 84.7474 13.1789 84.8066 13.5132 84.8066ZM13.5132 80.5664C13.8052 80.5664 14.0633 80.5135 14.2876 80.4077C14.5119 80.2977 14.6854 80.1475 14.8081 79.957C14.9351 79.7666 14.9985 79.5465 14.9985 79.2969V79.2842C14.9985 79.0345 14.9351 78.8145 14.8081 78.624C14.6812 78.4336 14.5055 78.2855 14.2812 78.1797C14.0612 78.0739 13.8052 78.021 13.5132 78.021C13.2212 78.021 12.9631 78.0739 12.7388 78.1797C12.5145 78.2855 12.3389 78.4336 12.2119 78.624C12.085 78.8145 12.0215 79.0345 12.0215 79.2842V79.2969C12.0215 79.5465 12.085 79.7666 12.2119 79.957C12.3389 80.1475 12.5145 80.2977 12.7388 80.4077C12.9631 80.5135 13.2212 80.5664 13.5132 80.5664ZM22.3745 86.2031C21.6847 86.2031 21.0796 86.0889 20.5591 85.8604C20.0428 85.6276 19.6344 85.306 19.334 84.8955C19.0335 84.4808 18.86 84.0005 18.8135 83.4546L18.8071 83.3721H20.6416L20.6479 83.4419C20.6776 83.6789 20.7643 83.8905 20.9082 84.0767C21.0563 84.2586 21.2552 84.4025 21.5049 84.5083C21.7546 84.6099 22.0444 84.6606 22.3745 84.6606C22.7004 84.6606 22.9839 84.6056 23.2251 84.4956C23.4705 84.3813 23.6589 84.2248 23.79 84.0259C23.9255 83.827 23.9932 83.5985 23.9932 83.3403V83.3276C23.9932 82.8875 23.8366 82.5511 23.5234 82.3184C23.2145 82.0856 22.7829 81.9692 22.2285 81.9692H21.1812V80.6045H22.2031C22.5247 80.6045 22.804 80.5516 23.041 80.4458C23.278 80.34 23.4621 80.194 23.5933 80.0078C23.7244 79.8174 23.79 79.5994 23.79 79.354V79.3413C23.79 79.0874 23.7329 78.8695 23.6187 78.6875C23.5086 78.5013 23.3457 78.3595 23.1299 78.2622C22.9183 78.1606 22.6623 78.1099 22.3618 78.1099C22.0614 78.1099 21.7969 78.1606 21.5684 78.2622C21.3398 78.3638 21.1579 78.5098 21.0225 78.7002C20.887 78.8864 20.8066 79.1064 20.7812 79.3604L20.7749 79.4175H19.0103L19.0166 79.3413C19.0632 78.7912 19.2282 78.3151 19.5117 77.9131C19.7995 77.5068 20.1846 77.1937 20.667 76.9736C21.1536 76.7493 21.7186 76.6372 22.3618 76.6372C23.0177 76.6372 23.589 76.7409 24.0757 76.9482C24.5623 77.1514 24.9368 77.437 25.1992 77.8052C25.4658 78.1691 25.5991 78.5965 25.5991 79.0874V79.1001C25.5991 79.481 25.5145 79.8153 25.3452 80.103C25.1759 80.3908 24.9474 80.6278 24.6597 80.814C24.3719 81.0002 24.0482 81.1313 23.6885 81.2075V81.2456C24.3698 81.3091 24.9157 81.5291 25.3262 81.9058C25.7367 82.2824 25.9419 82.7817 25.9419 83.4038V83.4165C25.9419 83.9709 25.7917 84.4575 25.4912 84.8765C25.195 85.2954 24.7803 85.6213 24.2471 85.854C23.7139 86.0868 23.0897 86.2031 22.3745 86.2031ZM29.6997 81.8613C29.2554 81.8613 28.8703 81.7576 28.5444 81.5503C28.2228 81.3387 27.9731 81.0404 27.7954 80.6553C27.6219 80.266 27.5352 79.8089 27.5352 79.2842V79.2778C27.5352 78.7446 27.6219 78.2876 27.7954 77.9067C27.9731 77.5216 28.2228 77.2254 28.5444 77.0181C28.8703 76.8107 29.2554 76.707 29.6997 76.707C30.1483 76.707 30.5334 76.8107 30.855 77.0181C31.1808 77.2254 31.4305 77.5216 31.604 77.9067C31.7775 78.2876 31.8643 78.7446 31.8643 79.2778V79.2842C31.8643 79.8089 31.7775 80.266 31.604 80.6553C31.4305 81.0404 31.1808 81.3387 30.855 81.5503C30.5334 81.7576 30.1483 81.8613 29.6997 81.8613ZM29.6997 80.8457C29.979 80.8457 30.1927 80.7103 30.3408 80.4395C30.4932 80.1686 30.5693 79.7835 30.5693 79.2842V79.2778C30.5693 78.7743 30.4932 78.3892 30.3408 78.1226C30.1927 77.856 29.979 77.7227 29.6997 77.7227C29.4246 77.7227 29.2109 77.856 29.0586 78.1226C28.9105 78.3892 28.8364 78.7743 28.8364 79.2778V79.2842C28.8364 79.7835 28.9105 80.1686 29.0586 80.4395C29.2109 80.7103 29.4246 80.8457 29.6997 80.8457ZM31.1089 86H29.6426L35.8062 76.8403H37.2725L31.1089 86ZM37.209 86.1333C36.7646 86.1333 36.3796 86.0296 36.0537 85.8223C35.7321 85.6107 35.4824 85.3123 35.3047 84.9272C35.1312 84.5422 35.0444 84.0851 35.0444 83.5562V83.5498C35.0444 83.0166 35.1312 82.5596 35.3047 82.1787C35.4824 81.7936 35.7321 81.4974 36.0537 81.29C36.3796 81.0827 36.7646 80.979 37.209 80.979C37.6576 80.979 38.0426 81.0827 38.3643 81.29C38.6901 81.4974 38.9398 81.7936 39.1133 82.1787C39.2868 82.5596 39.3735 83.0166 39.3735 83.5498V83.5562C39.3735 84.0851 39.2868 84.5422 39.1133 84.9272C38.9398 85.3123 38.6901 85.6107 38.3643 85.8223C38.0426 86.0296 37.6576 86.1333 37.209 86.1333ZM37.209 85.1177C37.4883 85.1177 37.702 84.9823 37.8501 84.7114C38.0024 84.4406 38.0786 84.0555 38.0786 83.5562V83.5498C38.0786 83.0462 38.0024 82.6611 37.8501 82.3945C37.702 82.1279 37.4883 81.9946 37.209 81.9946C36.9339 81.9946 36.7202 82.1279 36.5679 82.3945C36.4198 82.6611 36.3457 83.0462 36.3457 83.5498V83.5562C36.3457 84.0555 36.4198 84.4406 36.5679 84.7114C36.7202 84.9823 36.9339 85.1177 37.209 85.1177Z" fill="black"/>
<path d="M74.5547 86.25C73.6484 86.25 72.8516 86.112 72.1641 85.8359C71.4766 85.5547 70.9401 85.1667 70.5547 84.6719C70.1693 84.1719 69.9766 83.5964 69.9766 82.9453V82.9297C69.9766 82.4401 70.0885 81.9974 70.3125 81.6016C70.5417 81.2057 70.8542 80.8776 71.25 80.6172C71.6458 80.3516 72.099 80.1693 72.6094 80.0703V80.0234C71.9479 79.862 71.4115 79.5599 71 79.1172C70.5938 78.6693 70.3906 78.138 70.3906 77.5234V77.5078C70.3906 76.9245 70.5677 76.4062 70.9219 75.9531C71.276 75.4948 71.7656 75.1354 72.3906 74.875C73.0156 74.6094 73.737 74.4766 74.5547 74.4766C75.3724 74.4766 76.0938 74.6094 76.7188 74.875C77.3438 75.1354 77.8333 75.4948 78.1875 75.9531C78.5417 76.4062 78.7188 76.9245 78.7188 77.5078V77.5234C78.7188 78.138 78.513 78.6693 78.1016 79.1172C77.6901 79.5599 77.1562 79.862 76.5 80.0234V80.0703C77.0104 80.1693 77.4635 80.3516 77.8594 80.6172C78.2552 80.8776 78.5651 81.2057 78.7891 81.6016C79.0182 81.9974 79.1328 82.4401 79.1328 82.9297V82.9453C79.1328 83.5964 78.9401 84.1719 78.5547 84.6719C78.1693 85.1667 77.6302 85.5547 76.9375 85.8359C76.25 86.112 75.4557 86.25 74.5547 86.25ZM74.5547 84.5312C74.9661 84.5312 75.3307 84.4583 75.6484 84.3125C75.9661 84.1615 76.2135 83.9557 76.3906 83.6953C76.5729 83.4297 76.6641 83.1276 76.6641 82.7891V82.7734C76.6641 82.4349 76.5755 82.1354 76.3984 81.875C76.2214 81.6094 75.974 81.401 75.6562 81.25C75.3385 81.099 74.9714 81.0234 74.5547 81.0234C74.138 81.0234 73.7708 81.099 73.4531 81.25C73.1354 81.401 72.8854 81.6094 72.7031 81.875C72.526 82.1354 72.4375 82.4349 72.4375 82.7734V82.7891C72.4375 83.1276 72.5286 83.4297 72.7109 83.6953C72.8932 83.9557 73.1432 84.1615 73.4609 84.3125C73.7786 84.4583 74.1432 84.5312 74.5547 84.5312ZM74.5547 79.3125C74.9141 79.3125 75.2318 79.2474 75.5078 79.1172C75.7839 78.9818 75.9974 78.7969 76.1484 78.5625C76.3047 78.3281 76.3828 78.0573 76.3828 77.75V77.7344C76.3828 77.4271 76.3047 77.1562 76.1484 76.9219C75.9922 76.6875 75.776 76.5052 75.5 76.375C75.2292 76.2448 74.9141 76.1797 74.5547 76.1797C74.1953 76.1797 73.8776 76.2448 73.6016 76.375C73.3255 76.5052 73.1094 76.6875 72.9531 76.9219C72.7969 77.1562 72.7188 77.4271 72.7188 77.7344V77.75C72.7188 78.0573 72.7969 78.3281 72.9531 78.5625C73.1094 78.7969 73.3255 78.9818 73.6016 79.1172C73.8776 79.2474 74.1953 79.3125 74.5547 79.3125ZM85.5078 86.2891C84.5807 86.2891 83.7812 86.0495 83.1094 85.5703C82.4427 85.0859 81.9297 84.401 81.5703 83.5156C81.2109 82.6302 81.0312 81.5807 81.0312 80.3672V80.3516C81.0312 79.1328 81.2109 78.0833 81.5703 77.2031C81.9297 76.3177 82.4427 75.6354 83.1094 75.1562C83.7812 74.6771 84.5807 74.4375 85.5078 74.4375C86.4401 74.4375 87.2396 74.6771 87.9062 75.1562C88.5729 75.6354 89.0859 76.3177 89.4453 77.2031C89.8047 78.0833 89.9844 79.1328 89.9844 80.3516V80.3672C89.9844 81.5807 89.8047 82.6302 89.4453 83.5156C89.0859 84.401 88.5729 85.0859 87.9062 85.5703C87.2396 86.0495 86.4401 86.2891 85.5078 86.2891ZM85.5078 84.4219C85.9557 84.4219 86.3333 84.2604 86.6406 83.9375C86.9531 83.6146 87.1901 83.151 87.3516 82.5469C87.5182 81.9427 87.6016 81.2161 87.6016 80.3672V80.3516C87.6016 79.4974 87.5182 78.7708 87.3516 78.1719C87.1901 77.5677 86.9531 77.1068 86.6406 76.7891C86.3333 76.4661 85.9557 76.3047 85.5078 76.3047C85.0651 76.3047 84.6875 76.4661 84.375 76.7891C84.0677 77.1068 83.8307 77.5677 83.6641 78.1719C83.5026 78.7708 83.4219 79.4974 83.4219 80.3516V80.3672C83.4219 81.2161 83.5026 81.9427 83.6641 82.5469C83.8307 83.151 84.0677 83.6146 84.375 83.9375C84.6875 84.2604 85.0651 84.4219 85.5078 84.4219ZM91.0859 89.0312L91.7734 84.1953H94.0312L92.6094 89.0312H91.0859ZM100.445 86.2891C99.5182 86.2891 98.7188 86.0495 98.0469 85.5703C97.3802 85.0859 96.8672 84.401 96.5078 83.5156C96.1484 82.6302 95.9688 81.5807 95.9688 80.3672V80.3516C95.9688 79.1328 96.1484 78.0833 96.5078 77.2031C96.8672 76.3177 97.3802 75.6354 98.0469 75.1562C98.7188 74.6771 99.5182 74.4375 100.445 74.4375C101.378 74.4375 102.177 74.6771 102.844 75.1562C103.51 75.6354 104.023 76.3177 104.383 77.2031C104.742 78.0833 104.922 79.1328 104.922 80.3516V80.3672C104.922 81.5807 104.742 82.6302 104.383 83.5156C104.023 84.401 103.51 85.0859 102.844 85.5703C102.177 86.0495 101.378 86.2891 100.445 86.2891ZM100.445 84.4219C100.893 84.4219 101.271 84.2604 101.578 83.9375C101.891 83.6146 102.128 83.151 102.289 82.5469C102.456 81.9427 102.539 81.2161 102.539 80.3672V80.3516C102.539 79.4974 102.456 78.7708 102.289 78.1719C102.128 77.5677 101.891 77.1068 101.578 76.7891C101.271 76.4661 100.893 76.3047 100.445 76.3047C100.003 76.3047 99.625 76.4661 99.3125 76.7891C99.0052 77.1068 98.7682 77.5677 98.6016 78.1719C98.4401 78.7708 98.3594 79.4974 98.3594 80.3516V80.3672C98.3594 81.2161 98.4401 81.9427 98.6016 82.5469C98.7682 83.151 99.0052 83.6146 99.3125 83.9375C99.625 84.2604 100.003 84.4219 100.445 84.4219ZM111.398 86.2891C110.471 86.2891 109.672 86.0495 109 85.5703C108.333 85.0859 107.82 84.401 107.461 83.5156C107.102 82.6302 106.922 81.5807 106.922 80.3672V80.3516C106.922 79.1328 107.102 78.0833 107.461 77.2031C107.82 76.3177 108.333 75.6354 109 75.1562C109.672 74.6771 110.471 74.4375 111.398 74.4375C112.331 74.4375 113.13 74.6771 113.797 75.1562C114.464 75.6354 114.977 76.3177 115.336 77.2031C115.695 78.0833 115.875 79.1328 115.875 80.3516V80.3672C115.875 81.5807 115.695 82.6302 115.336 83.5156C114.977 84.401 114.464 85.0859 113.797 85.5703C113.13 86.0495 112.331 86.2891 111.398 86.2891ZM111.398 84.4219C111.846 84.4219 112.224 84.2604 112.531 83.9375C112.844 83.6146 113.081 83.151 113.242 82.5469C113.409 81.9427 113.492 81.2161 113.492 80.3672V80.3516C113.492 79.4974 113.409 78.7708 113.242 78.1719C113.081 77.5677 112.844 77.1068 112.531 76.7891C112.224 76.4661 111.846 76.3047 111.398 76.3047C110.956 76.3047 110.578 76.4661 110.266 76.7891C109.958 77.1068 109.721 77.5677 109.555 78.1719C109.393 78.7708 109.312 79.4974 109.312 80.3516V80.3672C109.312 81.2161 109.393 81.9427 109.555 82.5469C109.721 83.151 109.958 83.6146 110.266 83.9375C110.578 84.2604 110.956 84.4219 111.398 84.4219ZM122.352 86.2891C121.424 86.2891 120.625 86.0495 119.953 85.5703C119.286 85.0859 118.773 84.401 118.414 83.5156C118.055 82.6302 117.875 81.5807 117.875 80.3672V80.3516C117.875 79.1328 118.055 78.0833 118.414 77.2031C118.773 76.3177 119.286 75.6354 119.953 75.1562C120.625 74.6771 121.424 74.4375 122.352 74.4375C123.284 74.4375 124.083 74.6771 124.75 75.1562C125.417 75.6354 125.93 76.3177 126.289 77.2031C126.648 78.0833 126.828 79.1328 126.828 80.3516V80.3672C126.828 81.5807 126.648 82.6302 126.289 83.5156C125.93 84.401 125.417 85.0859 124.75 85.5703C124.083 86.0495 123.284 86.2891 122.352 86.2891ZM122.352 84.4219C122.799 84.4219 123.177 84.2604 123.484 83.9375C123.797 83.6146 124.034 83.151 124.195 82.5469C124.362 81.9427 124.445 81.2161 124.445 80.3672V80.3516C124.445 79.4974 124.362 78.7708 124.195 78.1719C124.034 77.5677 123.797 77.1068 123.484 76.7891C123.177 76.4661 122.799 76.3047 122.352 76.3047C121.909 76.3047 121.531 76.4661 121.219 76.7891C120.911 77.1068 120.674 77.5677 120.508 78.1719C120.346 78.7708 120.266 79.4974 120.266 80.3516V80.3672C120.266 81.2161 120.346 81.9427 120.508 82.5469C120.674 83.151 120.911 83.6146 121.219 83.9375C121.531 84.2604 121.909 84.4219 122.352 84.4219ZM132.324 80.208H134.452V83.456H132.324V80.208ZM138.82 72.608H140.948V83.824H138.82V72.608ZM130.276 85.472H141.268V87.168H130.276V85.472ZM130.276 82.768H132.404V85.92H130.276V82.768ZM128.676 80.848L128.42 79.152C131.124 79.152 134.74 79.12 137.844 78.72L137.972 80.24C134.82 80.768 131.348 80.848 128.676 80.848ZM136.02 81.216H139.284V82.672H136.02V81.216ZM133.188 73.12C135.348 73.12 136.868 74.192 136.868 75.76C136.868 77.344 135.348 78.4 133.188 78.4C131.012 78.4 129.492 77.344 129.492 75.76C129.492 74.192 131.012 73.12 133.188 73.12ZM133.188 74.672C132.196 74.672 131.508 75.04 131.508 75.76C131.508 76.48 132.196 76.848 133.188 76.848C134.164 76.848 134.852 76.48 134.852 75.76C134.852 75.04 134.164 74.672 133.188 74.672Z" fill="black"/>
<path d="M247.406 48.922H250.598V49.874H247.406V48.922ZM249.94 45.45H251.102V54.718H249.94V45.45ZM243.024 56.86H251.452V57.812H243.024V56.86ZM243.024 53.906H244.186V57.35H243.024V53.906ZM243.92 47.018H244.872V48.04C244.872 50.336 243.444 52.324 241.33 53.108L240.728 52.184C242.618 51.512 243.92 49.832 243.92 48.04V47.018ZM244.144 47.018H245.082V48.026C245.082 49.664 246.314 51.26 248.148 51.904L247.56 52.814C245.502 52.072 244.144 50.168 244.144 48.026V47.018ZM241.092 46.472H247.854V47.41H241.092V46.472ZM262.791 45.436H263.953V58.092H262.791V45.436ZM259.081 46.794H260.229C260.229 50.462 258.577 53.668 254.349 55.74L253.733 54.802C257.387 53.038 259.081 50.35 259.081 46.99V46.794ZM254.307 46.794H259.585V47.746H254.307V46.794Z" fill="black"/>
<circle cx="225" cy="53" r="3" fill="#00B1A6"/>
<path d="M245.81 64.884H246.832V65.584C246.832 68.006 244.368 69.742 241.736 70.19L241.274 69.252C243.584 68.902 245.81 67.39 245.81 65.584V64.884ZM246.02 64.884H247.028V65.584C247.028 67.348 249.282 68.902 251.564 69.252L251.102 70.19C248.498 69.742 246.02 67.978 246.02 65.584V64.884ZM245.81 72.276H246.958V77.092H245.81V72.276ZM240.7 71.562H252.138V72.528H240.7V71.562ZM255.021 70.344H263.715V71.296H255.021V70.344ZM253.579 74.53H265.045V75.51H253.579V74.53ZM258.703 70.75H259.865V74.922H258.703V70.75ZM255.021 65.444H263.589V66.396H256.183V70.764H255.021V65.444Z" fill="black"/>
<circle cx="225" cy="72" r="3" fill="#54DED6"/>
<path d="M240.686 90.156H252.124V91.108H240.686V90.156ZM245.838 88.308H246.986V90.646H245.838V88.308ZM242.17 94.86H250.864V95.812H242.17V94.86ZM242.17 92.158H243.332V95.168H242.17V92.158ZM246.412 83.8C249.114 83.8 250.864 84.766 250.864 86.334C250.864 87.916 249.114 88.854 246.412 88.854C243.696 88.854 241.96 87.916 241.96 86.334C241.96 84.766 243.696 83.8 246.412 83.8ZM246.412 84.752C244.424 84.752 243.15 85.354 243.15 86.334C243.15 87.328 244.424 87.916 246.412 87.916C248.4 87.916 249.674 87.328 249.674 86.334C249.674 85.354 248.4 84.752 246.412 84.752ZM258.689 83.884H259.711V84.584C259.711 87.006 257.247 88.742 254.615 89.19L254.153 88.252C256.463 87.902 258.689 86.39 258.689 84.584V83.884ZM258.899 83.884H259.907V84.584C259.907 86.348 262.161 87.902 264.443 88.252L263.981 89.19C261.377 88.742 258.899 86.978 258.899 84.584V83.884ZM258.689 91.276H259.837V96.092H258.689V91.276ZM253.579 90.562H265.017V91.528H253.579V90.562Z" fill="black"/>
<circle cx="225" cy="91" r="3" fill="#95F2ED"/>
<path d="M241.302 103.346H242.464V108.694H241.302V103.346ZM241.302 108.33H242.31C244.116 108.33 246.006 108.204 248.078 107.784L248.218 108.736C246.09 109.184 244.186 109.31 242.31 109.31H241.302V108.33ZM249.352 102.45H250.514V111.592H249.352V102.45ZM250.15 106.188H252.39V107.182H250.15V106.188ZM242.674 113.86H250.962V114.812H242.674V113.86ZM242.674 110.696H243.836V114.308H242.674V110.696ZM259.361 110.374C261.937 110.374 263.519 111.242 263.519 112.726C263.519 114.21 261.937 115.078 259.361 115.078C256.785 115.078 255.203 114.21 255.203 112.726C255.203 111.242 256.785 110.374 259.361 110.374ZM259.361 111.312C257.485 111.312 256.337 111.83 256.337 112.726C256.337 113.636 257.485 114.154 259.361 114.154C261.237 114.154 262.385 113.636 262.385 112.726C262.385 111.83 261.237 111.312 259.361 111.312ZM262.231 102.436H263.393V110.038H262.231V102.436ZM263.071 105.614H265.269V106.594H263.071V105.614ZM254.097 103.234H255.245V105.124H258.815V103.234H259.949V109.072H254.097V103.234ZM255.245 106.048V108.134H258.815V106.048H255.245Z" fill="black"/>
<circle cx="225" cy="110" r="3" fill="#D9D9D9"/>
</svg>
