<svg width="24" height="24" viewBox="0 0 24 24" fill="none" xmlns="http://www.w3.org/2000/svg">
<g id="contact_support">
<mask id="mask0_21_817" style="mask-type:alpha" maskUnits="userSpaceOnUse" x="0" y="0" width="24" height="24">
<rect id="Bounding box" width="24" height="24" fill="#D9D9D9"/>
</mask>
<g mask="url(#mask0_21_817)">
<path id="contact_support_2" d="M11.8824 20L11.6912 17.6H11.5C9.6902 17.6 8.15441 16.94 6.89265 15.62C5.63088 14.3 5 12.6933 5 10.8C5 8.90667 5.63088 7.3 6.89265 5.98C8.15441 4.66 9.6902 4 11.5 4C12.4049 4 13.2493 4.17667 14.0331 4.53C14.8169 4.88333 15.5051 5.37 16.0978 5.99C16.6904 6.61 17.1556 7.33 17.4934 8.15C17.8311 8.97 18 9.85333 18 10.8C18 11.8 17.8439 12.76 17.5316 13.68C17.2194 14.6 16.7924 15.4533 16.2507 16.24C15.7091 17.0267 15.0654 17.74 14.3199 18.38C13.5743 19.02 12.7618 19.56 11.8824 20ZM13.4118 17.08C14.3167 16.28 15.0527 15.3433 15.6199 14.27C16.187 13.1967 16.4706 12.04 16.4706 10.8C16.4706 9.34667 15.9895 8.11667 15.0272 7.11C14.065 6.10333 12.8892 5.6 11.5 5.6C10.1108 5.6 8.93505 6.10333 7.97279 7.11C7.01054 8.11667 6.52941 9.34667 6.52941 10.8C6.52941 12.2533 7.01054 13.4833 7.97279 14.49C8.93505 15.4967 10.1108 16 11.5 16H13.4118V17.08Z" fill="#00B1A6"/>
</g>
</g>
</svg>
