<svg width="319" height="164" viewBox="0 0 319 164" fill="none" xmlns="http://www.w3.org/2000/svg">
<path d="M1 4H282" stroke="#D9D9D9" stroke-linecap="round"/>
<path d="M1 38H282" stroke="#D9D9D9" stroke-width="0.5" stroke-linecap="round"/>
<path d="M1 72H282" stroke="#D9D9D9" stroke-linecap="round"/>
<path d="M1 107H282" stroke="#D9D9D9" stroke-width="0.5" stroke-linecap="round"/>
<path d="M1 142H282" stroke="#D9D9D9" stroke-linecap="round"/>
<line x1="265" y1="142" x2="265" y2="4" stroke="#080808" stroke-width="2"/>
<path d="M1 41.9162L21.556 38.036L51.92 44.8447L84.7975 64.7667L118.667 74.6829L155.515 85.0303L192.834 89L226.696 32L265 74.6829" stroke="#00B1A6" stroke-width="2" stroke-linecap="round"/>
<path d="M2 56L21 61.1117H54L86.5 81.5L119.169 89.2258L156.007 99.8751L193.309 114L227.17 61.9636L265 93.0596" stroke="#AEAEAE" stroke-width="2" stroke-linecap="round"/>
<path d="M296.495 146.166C295.974 146.166 295.528 146.016 295.157 145.717C294.789 145.417 294.506 144.993 294.308 144.442C294.109 143.889 294.01 143.235 294.01 142.479V142.47C294.01 141.715 294.109 141.062 294.308 140.512C294.506 139.962 294.789 139.537 295.157 139.237C295.528 138.938 295.974 138.788 296.495 138.788C297.016 138.788 297.462 138.938 297.833 139.237C298.204 139.537 298.489 139.962 298.688 140.512C298.889 141.062 298.99 141.715 298.99 142.47V142.479C298.99 143.235 298.889 143.889 298.688 144.442C298.489 144.993 298.204 145.417 297.833 145.717C297.462 146.016 297.016 146.166 296.495 146.166ZM296.495 145.399C296.834 145.399 297.122 145.281 297.359 145.043C297.6 144.805 297.784 144.468 297.911 144.032C298.041 143.596 298.106 143.078 298.106 142.479V142.47C298.106 141.871 298.041 141.355 297.911 140.922C297.784 140.486 297.6 140.15 297.359 139.916C297.122 139.678 296.834 139.56 296.495 139.56C296.16 139.56 295.872 139.678 295.631 139.916C295.393 140.15 295.211 140.486 295.084 140.922C294.957 141.355 294.894 141.871 294.894 142.47V142.479C294.894 143.078 294.957 143.596 295.084 144.032C295.211 144.468 295.393 144.805 295.631 145.043C295.872 145.281 296.16 145.399 296.495 145.399Z" fill="#AEAEAE"/>
<path d="M294.269 111V110.395L296.651 107.816C296.951 107.491 297.185 107.222 297.354 107.011C297.524 106.796 297.643 106.602 297.711 106.43C297.779 106.257 297.813 106.068 297.813 105.863V105.854C297.813 105.606 297.76 105.385 297.652 105.189C297.545 104.994 297.392 104.84 297.193 104.726C296.995 104.612 296.757 104.555 296.48 104.555C296.201 104.555 295.955 104.613 295.743 104.73C295.532 104.844 295.367 105.006 295.25 105.214C295.133 105.419 295.074 105.66 295.074 105.937L295.069 105.946L294.229 105.941L294.22 105.937C294.223 105.52 294.324 105.15 294.522 104.828C294.721 104.503 294.994 104.249 295.343 104.066C295.691 103.881 296.09 103.788 296.539 103.788C296.949 103.788 297.319 103.874 297.647 104.047C297.976 104.216 298.235 104.449 298.424 104.745C298.616 105.041 298.712 105.38 298.712 105.761V105.771C298.712 106.037 298.665 106.295 298.57 106.542C298.479 106.789 298.316 107.064 298.082 107.367C297.848 107.667 297.517 108.036 297.091 108.476L295.27 110.355L295.489 109.95V110.355L295.274 110.209H298.829V111H294.269Z" fill="#AEAEAE"/>
<path d="M297.286 76V74.54H293.854V73.7393C294.046 73.4202 294.241 73.098 294.439 72.7725C294.638 72.4437 294.838 72.1165 295.04 71.791C295.245 71.4622 295.45 71.1367 295.655 70.8145C295.86 70.4922 296.064 70.1748 296.266 69.8623C296.471 69.5498 296.673 69.2471 296.871 68.9541H298.146V73.7539H299.146V74.54H298.146V76H297.286ZM294.752 73.7588H297.291V69.7695H297.232C297.073 70.0072 296.91 70.2546 296.744 70.5117C296.578 70.7656 296.409 71.026 296.236 71.293C296.067 71.5599 295.898 71.8285 295.729 72.0986C295.559 72.3688 295.392 72.639 295.226 72.9092C295.063 73.1761 294.905 73.4398 294.752 73.7002V73.7588Z" fill="#AEAEAE"/>
<path d="M296.593 42.166C296.271 42.166 295.951 42.1042 295.636 41.9805C295.323 41.8568 295.038 41.6566 294.781 41.3799C294.527 41.1032 294.324 40.7386 294.171 40.2861C294.018 39.8304 293.941 39.2705 293.941 38.6064V38.5967C293.941 37.7959 294.049 37.1123 294.264 36.5459C294.479 35.9762 294.788 35.5417 295.191 35.2422C295.595 34.9395 296.082 34.7881 296.651 34.7881C297.045 34.7881 297.4 34.8613 297.716 35.0078C298.035 35.151 298.3 35.3529 298.512 35.6133C298.727 35.8704 298.873 36.1732 298.951 36.5215L298.966 36.585H298.082L298.062 36.5312C297.991 36.3327 297.888 36.1634 297.755 36.0234C297.625 35.8802 297.465 35.7695 297.276 35.6914C297.091 35.6133 296.879 35.5742 296.642 35.5742C296.215 35.5742 295.868 35.6995 295.602 35.9502C295.335 36.1976 295.136 36.528 295.006 36.9414C294.879 37.3516 294.806 37.8024 294.786 38.2939C294.783 38.3363 294.781 38.3802 294.781 38.4258C294.781 38.4681 294.781 38.512 294.781 38.5576L294.991 39.7295C294.991 40.0387 295.061 40.3187 295.201 40.5693C295.344 40.82 295.536 41.0202 295.777 41.1699C296.018 41.3164 296.287 41.3896 296.583 41.3896C296.879 41.3896 297.148 41.318 297.389 41.1748C297.63 41.0283 297.82 40.8314 297.96 40.584C298.103 40.3366 298.175 40.0615 298.175 39.7588V39.749C298.175 39.4365 298.106 39.1598 297.97 38.9189C297.836 38.6748 297.651 38.4844 297.413 38.3477C297.175 38.2077 296.904 38.1377 296.598 38.1377C296.295 38.1377 296.021 38.2061 295.777 38.3428C295.536 38.4795 295.344 38.6683 295.201 38.9092C295.061 39.1468 294.991 39.4186 294.991 39.7246V39.7295H294.703V38.46H294.874C294.962 38.2679 295.092 38.0889 295.265 37.9229C295.437 37.7568 295.649 37.6234 295.899 37.5225C296.15 37.4215 296.433 37.3711 296.749 37.3711C297.192 37.3711 297.587 37.4736 297.936 37.6787C298.284 37.8838 298.557 38.1637 298.756 38.5186C298.958 38.8734 299.059 39.277 299.059 39.7295V39.7393C299.059 40.208 298.951 40.6247 298.736 40.9893C298.525 41.3538 298.233 41.6419 297.862 41.8535C297.491 42.0618 297.068 42.166 296.593 42.166Z" fill="#AEAEAE"/>
<circle cx="21" cy="38" r="3" fill="white" stroke="#00B1A6" stroke-width="2"/>
<circle cx="54" cy="46" r="3" fill="white" stroke="#00B1A6" stroke-width="2"/>
<circle cx="54" cy="61" r="3" fill="white" stroke="#AEAEAE" stroke-width="2"/>
<circle cx="87" cy="65" r="3" fill="white" stroke="#00B1A6" stroke-width="2"/>
<circle cx="121" cy="76" r="3" fill="white" stroke="#00B1A6" stroke-width="2"/>
<circle cx="121" cy="90" r="3" fill="white" stroke="#AEAEAE" stroke-width="2"/>
<circle cx="87" cy="81" r="3" fill="white" stroke="#AEAEAE" stroke-width="2"/>
<circle cx="157" cy="85" r="3" fill="white" stroke="#00B1A6" stroke-width="2"/>
<circle cx="157" cy="100" r="3" fill="white" stroke="#AEAEAE" stroke-width="2"/>
<circle cx="193" cy="89" r="3" fill="white" stroke="#00B1A6" stroke-width="2"/>
<circle cx="193" cy="114" r="3" fill="white" stroke="#AEAEAE" stroke-width="2"/>
<circle cx="227" cy="33" r="3" fill="white" stroke="#00B1A6" stroke-width="2"/>
<circle cx="227" cy="63" r="3" fill="white" stroke="#AEAEAE" stroke-width="2"/>
<circle cx="265" cy="74" r="3" fill="#00B1A6" stroke="#00B1A6" stroke-width="2"/>
<circle cx="265" cy="93" r="3" fill="#AEAEAE" stroke="#AEAEAE" stroke-width="2"/>
<circle cx="21" cy="61" r="3" fill="white" stroke="#AEAEAE" stroke-width="2"/>
<path d="M288.051 162.758C287.735 162.338 287.475 161.892 287.27 161.42C287.064 160.948 286.911 160.445 286.811 159.911C286.713 159.377 286.664 158.808 286.664 158.202C286.664 157.597 286.713 157.029 286.811 156.498C286.908 155.964 287.06 155.461 287.265 154.989C287.47 154.514 287.732 154.066 288.051 153.646H288.764C288.588 153.871 288.424 154.154 288.271 154.496C288.121 154.838 287.991 155.215 287.88 155.629C287.769 156.039 287.683 156.465 287.621 156.908C287.559 157.348 287.528 157.779 287.528 158.202C287.528 158.629 287.559 159.063 287.621 159.506C287.683 159.945 287.769 160.372 287.88 160.785C287.991 161.195 288.121 161.57 288.271 161.908C288.424 162.25 288.588 162.533 288.764 162.758H288.051ZM290.171 153.55H294.321V157.74H290.171V153.55ZM293.511 154.22H290.981V157.07H293.511V154.22ZM295.981 152.73H296.811V159.36H295.981V152.73ZM296.551 155.49H298.151V156.18H296.551V155.49ZM291.181 160.9H297.221V161.58H291.181V160.9ZM291.181 158.73H292.011V161.19H291.181V158.73ZM301.56 157.29H302.39V159.3H301.56V157.29ZM305.57 152.74H306.4V159.62H305.57V152.74ZM300.23 160.9H306.62V161.58H300.23V160.9ZM300.23 158.95H301.06V161.09H300.23V158.95ZM299.06 157.6L298.95 156.92C300.62 156.92 302.86 156.9 304.78 156.65L304.84 157.26C302.89 157.57 300.7 157.6 299.06 157.6ZM303.73 158.08H305.78V158.69H303.73V158.08ZM301.89 153.11C303.21 153.11 304.11 153.73 304.11 154.68C304.11 155.64 303.21 156.26 301.89 156.26C300.56 156.26 299.66 155.64 299.66 154.68C299.66 153.73 300.56 153.11 301.89 153.11ZM301.89 153.73C301.04 153.73 300.45 154.1 300.45 154.68C300.45 155.26 301.04 155.63 301.89 155.63C302.73 155.63 303.32 155.26 303.32 154.68C303.32 154.1 302.73 153.73 301.89 153.73ZM308.949 162.758H308.236C308.412 162.533 308.575 162.25 308.725 161.908C308.878 161.57 309.009 161.195 309.12 160.785C309.231 160.372 309.317 159.945 309.379 159.506C309.441 159.063 309.472 158.629 309.472 158.202C309.472 157.779 309.441 157.348 309.379 156.908C309.317 156.465 309.231 156.039 309.12 155.629C309.009 155.215 308.878 154.838 308.725 154.496C308.575 154.154 308.412 153.871 308.236 153.646H308.949C309.268 154.066 309.53 154.514 309.735 154.989C309.94 155.461 310.092 155.964 310.189 156.498C310.287 157.029 310.336 157.597 310.336 158.202C310.336 158.808 310.285 159.377 310.185 159.911C310.087 160.445 309.936 160.948 309.73 161.42C309.529 161.892 309.268 162.338 308.949 162.758Z" fill="#AEAEAE"/>
<path d="M16.0029 161.181C15.5928 161.181 15.2119 161.107 14.8604 160.961C14.5088 160.814 14.1995 160.591 13.9326 160.292C13.6689 159.993 13.4622 159.615 13.3125 159.159C13.166 158.703 13.0928 158.165 13.0928 157.543V157.533C13.0928 156.749 13.21 156.076 13.4443 155.517C13.682 154.953 14.0189 154.522 14.4551 154.223C14.8913 153.923 15.4089 153.773 16.0078 153.773C16.4635 153.773 16.8737 153.856 17.2383 154.022C17.6029 154.188 17.9023 154.415 18.1367 154.701C18.3743 154.988 18.529 155.315 18.6006 155.683L18.6104 155.731H17.1699L17.1504 155.688C17.0951 155.538 17.0137 155.409 16.9062 155.302C16.8021 155.191 16.6751 155.105 16.5254 155.043C16.3757 154.981 16.2048 154.95 16.0127 154.95C15.6742 154.95 15.3958 155.051 15.1777 155.253C14.9596 155.455 14.7952 155.728 14.6846 156.073C14.5771 156.418 14.5137 156.804 14.4941 157.23C14.4909 157.279 14.4893 157.328 14.4893 157.377C14.4893 157.423 14.4893 157.471 14.4893 157.523L14.709 158.7C14.709 158.948 14.766 159.171 14.8799 159.369C14.9938 159.568 15.1484 159.726 15.3438 159.843C15.5391 159.957 15.7555 160.014 15.9932 160.014C16.2308 160.014 16.4456 159.957 16.6377 159.843C16.833 159.729 16.9876 159.576 17.1016 159.384C17.2188 159.188 17.2773 158.97 17.2773 158.729V158.72C17.2773 158.472 17.222 158.254 17.1113 158.065C17.0007 157.873 16.8493 157.722 16.6572 157.611C16.4684 157.501 16.2503 157.445 16.0029 157.445C15.762 157.445 15.5439 157.499 15.3486 157.606C15.1533 157.714 14.9971 157.862 14.8799 158.051C14.766 158.236 14.709 158.451 14.709 158.695V158.7H14.416V157.392H14.5869C14.6748 157.209 14.7985 157.04 14.958 156.884C15.1175 156.728 15.3177 156.602 15.5586 156.508C15.7995 156.41 16.0811 156.361 16.4033 156.361C16.8623 156.361 17.2643 156.461 17.6094 156.659C17.9544 156.858 18.223 157.131 18.415 157.479C18.6071 157.828 18.7031 158.225 18.7031 158.671V158.681C18.7031 159.159 18.5876 159.587 18.3564 159.965C18.1286 160.342 17.8112 160.64 17.4043 160.858C17.0007 161.073 16.5335 161.181 16.0029 161.181ZM21.9584 156.39H23.2884V158H21.9584V156.39ZM26.1884 152.63H27.5184V157.99H26.1884V152.63ZM19.8684 156.8L19.7284 155.88C21.5084 155.88 23.6984 155.88 25.6484 155.69L25.7184 156.51C23.7084 156.79 21.5984 156.81 19.8684 156.8ZM21.0384 158.27H27.5184V160.44H22.3684V161.17H21.0584V159.61H26.1984V159.17H21.0384V158.27ZM21.0584 160.92H27.7284V161.83H21.0584V160.92ZM24.5484 156.92H26.5984V157.71H24.5484V156.92ZM22.6684 152.76C24.0484 152.76 24.9784 153.31 24.9784 154.15C24.9784 155 24.0484 155.54 22.6684 155.54C21.2784 155.54 20.3484 155 20.3484 154.15C20.3484 153.31 21.2784 152.76 22.6684 152.76ZM22.6684 153.63C21.9984 153.63 21.5884 153.81 21.5884 154.15C21.5884 154.49 21.9984 154.66 22.6684 154.66C23.3284 154.66 23.7384 154.49 23.7384 154.15C23.7384 153.81 23.3284 153.63 22.6684 153.63Z" fill="#AEAEAE"/>
<path d="M47.4033 161L50.4062 155.209V155.126H46.8516V153.949H51.8906V155.141L48.9463 161H47.4033ZM55.0629 156.39H56.3929V158H55.0629V156.39ZM59.2929 152.63H60.6229V157.99H59.2929V152.63ZM52.9729 156.8L52.8329 155.88C54.6129 155.88 56.8029 155.88 58.7529 155.69L58.8229 156.51C56.8129 156.79 54.7029 156.81 52.9729 156.8ZM54.1429 158.27H60.6229V160.44H55.4729V161.17H54.1629V159.61H59.3029V159.17H54.1429V158.27ZM54.1629 160.92H60.8329V161.83H54.1629V160.92ZM57.6529 156.92H59.7029V157.71H57.6529V156.92ZM55.7729 152.76C57.1529 152.76 58.0829 153.31 58.0829 154.15C58.0829 155 57.1529 155.54 55.7729 155.54C54.3829 155.54 53.4529 155 53.4529 154.15C53.4529 153.31 54.3829 152.76 55.7729 152.76ZM55.7729 153.63C55.1029 153.63 54.6929 153.81 54.6929 154.15C54.6929 154.49 55.1029 154.66 55.7729 154.66C56.4329 154.66 56.8429 154.49 56.8429 154.15C56.8429 153.81 56.4329 153.63 55.7729 153.63Z" fill="#AEAEAE"/>
<path d="M82.9004 161.156C82.334 161.156 81.8359 161.07 81.4062 160.897C80.9766 160.722 80.6413 160.479 80.4004 160.17C80.1595 159.857 80.0391 159.498 80.0391 159.091V159.081C80.0391 158.775 80.109 158.498 80.249 158.251C80.3923 158.004 80.5876 157.799 80.835 157.636C81.0824 157.47 81.3656 157.356 81.6846 157.294V157.265C81.2712 157.164 80.9359 156.975 80.6787 156.698C80.4248 156.418 80.2979 156.086 80.2979 155.702V155.692C80.2979 155.328 80.4085 155.004 80.6299 154.721C80.8512 154.434 81.1572 154.21 81.5479 154.047C81.9385 153.881 82.3893 153.798 82.9004 153.798C83.4115 153.798 83.8623 153.881 84.2529 154.047C84.6436 154.21 84.9495 154.434 85.1709 154.721C85.3923 155.004 85.5029 155.328 85.5029 155.692V155.702C85.5029 156.086 85.3743 156.418 85.1172 156.698C84.86 156.975 84.5264 157.164 84.1162 157.265V157.294C84.4352 157.356 84.7184 157.47 84.9658 157.636C85.2132 157.799 85.4069 158.004 85.5469 158.251C85.6901 158.498 85.7617 158.775 85.7617 159.081V159.091C85.7617 159.498 85.6413 159.857 85.4004 160.17C85.1595 160.479 84.8226 160.722 84.3896 160.897C83.96 161.07 83.4635 161.156 82.9004 161.156ZM82.9004 160.082C83.1576 160.082 83.3854 160.036 83.584 159.945C83.7826 159.851 83.9372 159.722 84.0479 159.56C84.1618 159.394 84.2188 159.205 84.2188 158.993V158.983C84.2188 158.772 84.1634 158.585 84.0527 158.422C83.9421 158.256 83.7874 158.126 83.5889 158.031C83.3903 157.937 83.1608 157.89 82.9004 157.89C82.64 157.89 82.4105 157.937 82.2119 158.031C82.0133 158.126 81.8571 158.256 81.7432 158.422C81.6325 158.585 81.5771 158.772 81.5771 158.983V158.993C81.5771 159.205 81.6341 159.394 81.748 159.56C81.862 159.722 82.0182 159.851 82.2168 159.945C82.4154 160.036 82.6432 160.082 82.9004 160.082ZM82.9004 156.82C83.125 156.82 83.3236 156.78 83.4961 156.698C83.6686 156.614 83.8021 156.498 83.8965 156.352C83.9941 156.205 84.043 156.036 84.043 155.844V155.834C84.043 155.642 83.9941 155.473 83.8965 155.326C83.7988 155.18 83.6637 155.066 83.4912 154.984C83.3219 154.903 83.125 154.862 82.9004 154.862C82.6758 154.862 82.4772 154.903 82.3047 154.984C82.1322 155.066 81.9971 155.18 81.8994 155.326C81.8018 155.473 81.7529 155.642 81.7529 155.834V155.844C81.7529 156.036 81.8018 156.205 81.8994 156.352C81.9971 156.498 82.1322 156.614 82.3047 156.698C82.4772 156.78 82.6758 156.82 82.9004 156.82ZM89.0121 156.39H90.3421V158H89.0121V156.39ZM93.2421 152.63H94.5721V157.99H93.2421V152.63ZM86.9221 156.8L86.7821 155.88C88.5621 155.88 90.7521 155.88 92.7021 155.69L92.7721 156.51C90.7621 156.79 88.6521 156.81 86.9221 156.8ZM88.0921 158.27H94.5721V160.44H89.4221V161.17H88.1121V159.61H93.2521V159.17H88.0921V158.27ZM88.1121 160.92H94.7821V161.83H88.1121V160.92ZM91.6021 156.92H93.6521V157.71H91.6021V156.92ZM89.7221 152.76C91.1021 152.76 92.0321 153.31 92.0321 154.15C92.0321 155 91.1021 155.54 89.7221 155.54C88.3321 155.54 87.4021 155 87.4021 154.15C87.4021 153.31 88.3321 152.76 89.7221 152.76ZM89.7221 153.63C89.0521 153.63 88.6421 153.81 88.6421 154.15C88.6421 154.49 89.0521 154.66 89.7221 154.66C90.3821 154.66 90.7921 154.49 90.7921 154.15C90.7921 153.81 90.3821 153.63 89.7221 153.63Z" fill="#AEAEAE"/>
<path d="M116.803 153.769C117.21 153.769 117.589 153.843 117.94 153.993C118.295 154.14 118.604 154.363 118.868 154.662C119.135 154.958 119.342 155.336 119.488 155.795C119.638 156.251 119.713 156.788 119.713 157.406V157.416C119.713 158.204 119.594 158.878 119.356 159.438C119.122 159.997 118.787 160.427 118.351 160.727C117.914 161.026 117.395 161.176 116.793 161.176C116.34 161.176 115.932 161.094 115.567 160.932C115.203 160.766 114.902 160.539 114.664 160.253C114.43 159.963 114.275 159.634 114.2 159.267L114.19 159.223H115.636L115.65 159.267C115.709 159.41 115.79 159.538 115.895 159.652C116.002 159.763 116.131 159.849 116.28 159.911C116.43 159.973 116.599 160.004 116.788 160.004C117.13 160.004 117.41 159.903 117.628 159.701C117.846 159.496 118.01 159.221 118.121 158.876C118.232 158.531 118.295 158.145 118.312 157.719C118.315 157.67 118.316 157.621 118.316 157.572C118.316 157.523 118.316 157.476 118.316 157.431L118.092 156.249C118.092 156.002 118.035 155.78 117.921 155.585C117.807 155.386 117.654 155.23 117.462 155.116C117.27 154.999 117.053 154.94 116.812 154.94C116.575 154.94 116.358 154.997 116.163 155.111C115.971 155.222 115.816 155.375 115.699 155.57C115.585 155.762 115.528 155.979 115.528 156.22V156.229C115.528 156.477 115.584 156.697 115.694 156.889C115.805 157.081 115.956 157.232 116.148 157.343C116.34 157.45 116.559 157.504 116.803 157.504C117.047 157.504 117.265 157.452 117.457 157.348C117.652 157.24 117.807 157.092 117.921 156.903C118.035 156.715 118.092 156.5 118.092 156.259V156.249H118.385V157.562H118.214C118.132 157.742 118.01 157.911 117.848 158.07C117.688 158.227 117.488 158.354 117.247 158.451C117.006 158.546 116.723 158.593 116.397 158.593C115.942 158.593 115.541 158.493 115.196 158.295C114.851 158.093 114.583 157.818 114.391 157.47C114.199 157.121 114.103 156.726 114.103 156.283V156.273C114.103 155.792 114.216 155.362 114.444 154.984C114.675 154.607 114.994 154.311 115.401 154.096C115.808 153.878 116.275 153.769 116.803 153.769ZM122.958 156.39H124.288V158H122.958V156.39ZM127.188 152.63H128.518V157.99H127.188V152.63ZM120.868 156.8L120.728 155.88C122.508 155.88 124.698 155.88 126.648 155.69L126.718 156.51C124.708 156.79 122.598 156.81 120.868 156.8ZM122.038 158.27H128.518V160.44H123.368V161.17H122.058V159.61H127.198V159.17H122.038V158.27ZM122.058 160.92H128.728V161.83H122.058V160.92ZM125.548 156.92H127.598V157.71H125.548V156.92ZM123.668 152.76C125.048 152.76 125.978 153.31 125.978 154.15C125.978 155 125.048 155.54 123.668 155.54C122.278 155.54 121.348 155 121.348 154.15C121.348 153.31 122.278 152.76 123.668 152.76ZM123.668 153.63C122.998 153.63 122.588 153.81 122.588 154.15C122.588 154.49 122.998 154.66 123.668 154.66C124.328 154.66 124.738 154.49 124.738 154.15C124.738 153.81 124.328 153.63 123.668 153.63Z" fill="#AEAEAE"/>
<path d="M149.855 161V155.346H149.768L148.039 156.547V155.219L149.86 153.954H151.33V161H149.855ZM155.959 161.181C155.38 161.181 154.88 161.031 154.46 160.731C154.043 160.429 153.723 160.001 153.498 159.447C153.273 158.894 153.161 158.238 153.161 157.479V157.47C153.161 156.708 153.273 156.052 153.498 155.502C153.723 154.949 154.043 154.522 154.46 154.223C154.88 153.923 155.38 153.773 155.959 153.773C156.542 153.773 157.041 153.923 157.458 154.223C157.875 154.522 158.195 154.949 158.42 155.502C158.645 156.052 158.757 156.708 158.757 157.47V157.479C158.757 158.238 158.645 158.894 158.42 159.447C158.195 160.001 157.875 160.429 157.458 160.731C157.041 161.031 156.542 161.181 155.959 161.181ZM155.959 160.014C156.239 160.014 156.475 159.913 156.667 159.711C156.862 159.509 157.01 159.219 157.111 158.842C157.215 158.464 157.268 158.01 157.268 157.479V157.47C157.268 156.936 157.215 156.482 157.111 156.107C157.01 155.73 156.862 155.442 156.667 155.243C156.475 155.041 156.239 154.94 155.959 154.94C155.682 154.94 155.446 155.041 155.251 155.243C155.059 155.442 154.911 155.73 154.807 156.107C154.706 156.482 154.655 156.936 154.655 157.47V157.479C154.655 158.01 154.706 158.464 154.807 158.842C154.911 159.219 155.059 159.509 155.251 159.711C155.446 159.913 155.682 160.014 155.959 160.014ZM162.022 156.39H163.352V158H162.022V156.39ZM166.252 152.63H167.582V157.99H166.252V152.63ZM159.932 156.8L159.792 155.88C161.572 155.88 163.762 155.88 165.712 155.69L165.782 156.51C163.772 156.79 161.662 156.81 159.932 156.8ZM161.102 158.27H167.582V160.44H162.432V161.17H161.122V159.61H166.262V159.17H161.102V158.27ZM161.122 160.92H167.792V161.83H161.122V160.92ZM164.612 156.92H166.662V157.71H164.612V156.92ZM162.732 152.76C164.112 152.76 165.042 153.31 165.042 154.15C165.042 155 164.112 155.54 162.732 155.54C161.342 155.54 160.412 155 160.412 154.15C160.412 153.31 161.342 152.76 162.732 152.76ZM162.732 153.63C162.062 153.63 161.652 153.81 161.652 154.15C161.652 154.49 162.062 154.66 162.732 154.66C163.392 154.66 163.802 154.49 163.802 154.15C163.802 153.81 163.392 153.63 162.732 153.63Z" fill="#AEAEAE"/>
<path d="M187.72 161V155.346H187.632L185.903 156.547V155.219L187.725 153.954H189.194V161H187.72ZM192.837 161V155.346H192.749L191.021 156.547V155.219L192.842 153.954H194.312V161H192.837ZM198.158 156.39H199.488V158H198.158V156.39ZM202.388 152.63H203.718V157.99H202.388V152.63ZM196.068 156.8L195.928 155.88C197.708 155.88 199.898 155.88 201.848 155.69L201.918 156.51C199.908 156.79 197.798 156.81 196.068 156.8ZM197.238 158.27H203.718V160.44H198.568V161.17H197.258V159.61H202.398V159.17H197.238V158.27ZM197.258 160.92H203.928V161.83H197.258V160.92ZM200.748 156.92H202.798V157.71H200.748V156.92ZM198.868 152.76C200.248 152.76 201.178 153.31 201.178 154.15C201.178 155 200.248 155.54 198.868 155.54C197.478 155.54 196.548 155 196.548 154.15C196.548 153.31 197.478 152.76 198.868 152.76ZM198.868 153.63C198.198 153.63 197.788 153.81 197.788 154.15C197.788 154.49 198.198 154.66 198.868 154.66C199.528 154.66 199.938 154.49 199.938 154.15C199.938 153.81 199.528 153.63 198.868 153.63Z" fill="#AEAEAE"/>
<path d="M223.561 161V155.346H223.473L221.744 156.547V155.219L223.565 153.954H225.035V161H223.561ZM226.954 161V160.009L229.225 157.768C229.557 157.449 229.814 157.187 229.996 156.981C230.178 156.773 230.305 156.592 230.377 156.439C230.449 156.283 230.484 156.122 230.484 155.956V155.941C230.484 155.74 230.44 155.562 230.353 155.409C230.268 155.256 230.144 155.137 229.981 155.053C229.819 154.965 229.625 154.921 229.4 154.921C229.173 154.921 228.971 154.97 228.795 155.067C228.619 155.162 228.482 155.294 228.385 155.463C228.287 155.629 228.238 155.824 228.238 156.049V156.073H226.876L226.871 156.049C226.871 155.6 226.98 155.204 227.198 154.862C227.42 154.521 227.724 154.254 228.111 154.062C228.502 153.869 228.954 153.773 229.469 153.773C229.954 153.773 230.38 153.86 230.748 154.032C231.119 154.205 231.409 154.444 231.617 154.75C231.829 155.056 231.935 155.412 231.935 155.819V155.834C231.935 156.101 231.882 156.363 231.778 156.62C231.674 156.874 231.498 157.149 231.251 157.445C231.004 157.742 230.665 158.088 230.235 158.485L228.536 160.072L228.932 159.428V160.072L228.536 159.813H232.037V161H226.954ZM235.317 156.39H236.647V158H235.317V156.39ZM239.547 152.63H240.877V157.99H239.547V152.63ZM233.227 156.8L233.087 155.88C234.867 155.88 237.057 155.88 239.007 155.69L239.077 156.51C237.067 156.79 234.957 156.81 233.227 156.8ZM234.397 158.27H240.877V160.44H235.727V161.17H234.417V159.61H239.557V159.17H234.397V158.27ZM234.417 160.92H241.087V161.83H234.417V160.92ZM237.907 156.92H239.957V157.71H237.907V156.92ZM236.027 152.76C237.407 152.76 238.337 153.31 238.337 154.15C238.337 155 237.407 155.54 236.027 155.54C234.637 155.54 233.707 155 233.707 154.15C233.707 153.31 234.637 152.76 236.027 152.76ZM236.027 153.63C235.357 153.63 234.947 153.81 234.947 154.15C234.947 154.49 235.357 154.66 236.027 154.66C236.687 154.66 237.097 154.49 237.097 154.15C237.097 153.81 236.687 153.63 236.027 153.63Z" fill="#AEAEAE"/>
<path d="M260.778 161V155.346H260.69L258.962 156.547V155.219L260.783 153.954H262.253V161H260.778ZM266.099 156.39H267.429V158H266.099V156.39ZM270.329 152.63H271.659V157.99H270.329V152.63ZM264.009 156.8L263.869 155.88C265.649 155.88 267.839 155.88 269.789 155.69L269.859 156.51C267.849 156.79 265.739 156.81 264.009 156.8ZM265.179 158.27H271.659V160.44H266.509V161.17H265.199V159.61H270.339V159.17H265.179V158.27ZM265.199 160.92H271.869V161.83H265.199V160.92ZM268.689 156.92H270.739V157.71H268.689V156.92ZM266.809 152.76C268.189 152.76 269.119 153.31 269.119 154.15C269.119 155 268.189 155.54 266.809 155.54C265.419 155.54 264.489 155 264.489 154.15C264.489 153.31 265.419 152.76 266.809 152.76ZM266.809 153.63C266.139 153.63 265.729 153.81 265.729 154.15C265.729 154.49 266.139 154.66 266.809 154.66C267.469 154.66 267.879 154.49 267.879 154.15C267.879 153.81 267.469 153.63 266.809 153.63Z" fill="#080808"/>
<path d="M296.5 8.11719C296.002 8.11719 295.561 8.03092 295.177 7.8584C294.793 7.68587 294.49 7.44824 294.269 7.14551C294.05 6.83952 293.941 6.48958 293.941 6.0957V6.08594C293.941 5.79622 294.005 5.52767 294.132 5.28027C294.259 5.03288 294.436 4.82292 294.664 4.65039C294.892 4.47461 295.156 4.35254 295.455 4.28418V4.26465C295.071 4.14421 294.765 3.94564 294.537 3.66895C294.309 3.39225 294.195 3.06836 294.195 2.69727V2.6875C294.195 2.33268 294.295 2.01693 294.493 1.74023C294.692 1.46029 294.965 1.24056 295.313 1.08105C295.662 0.918294 296.057 0.836914 296.5 0.836914C296.946 0.836914 297.341 0.918294 297.687 1.08105C298.035 1.24056 298.308 1.46029 298.507 1.74023C298.705 2.01693 298.805 2.33268 298.805 2.6875V2.69727C298.805 3.06836 298.691 3.39225 298.463 3.66895C298.238 3.94564 297.932 4.14421 297.545 4.26465V4.28418C297.848 4.35254 298.111 4.47461 298.336 4.65039C298.564 4.82292 298.741 5.03288 298.868 5.28027C298.995 5.52767 299.059 5.79622 299.059 6.08594V6.0957C299.059 6.48958 298.95 6.83952 298.731 7.14551C298.513 7.44824 298.211 7.68587 297.823 7.8584C297.439 8.03092 296.998 8.11719 296.5 8.11719ZM296.5 7.35059C296.826 7.35059 297.112 7.29525 297.359 7.18457C297.61 7.07064 297.807 6.91602 297.95 6.7207C298.093 6.52214 298.165 6.2959 298.165 6.04199V6.03223C298.165 5.77507 298.093 5.5472 297.95 5.34863C297.81 5.15007 297.615 4.99382 297.364 4.87988C297.114 4.76595 296.826 4.70898 296.5 4.70898C296.174 4.70898 295.886 4.76595 295.636 4.87988C295.385 4.99382 295.188 5.15007 295.045 5.34863C294.905 5.5472 294.835 5.77507 294.835 6.03223V6.04199C294.835 6.2959 294.907 6.52214 295.05 6.7207C295.193 6.91602 295.39 7.07064 295.641 7.18457C295.891 7.29525 296.178 7.35059 296.5 7.35059ZM296.5 3.9375C296.783 3.9375 297.032 3.88867 297.247 3.79102C297.462 3.6901 297.63 3.55176 297.75 3.37598C297.87 3.2002 297.931 2.99837 297.931 2.77051V2.76074C297.931 2.53288 297.87 2.33105 297.75 2.15527C297.63 1.97949 297.462 1.84277 297.247 1.74512C297.032 1.64421 296.783 1.59375 296.5 1.59375C296.217 1.59375 295.968 1.64421 295.753 1.74512C295.538 1.84277 295.37 1.97949 295.25 2.15527C295.13 2.33105 295.069 2.53288 295.069 2.76074V2.77051C295.069 2.99837 295.13 3.2002 295.25 3.37598C295.37 3.55176 295.538 3.6901 295.753 3.79102C295.968 3.88867 296.217 3.9375 296.5 3.9375Z" fill="#AEAEAE"/>
</svg>
