<svg width="120" height="120" viewBox="0 0 120 120" fill="none" xmlns="http://www.w3.org/2000/svg">
<mask id="mask0_21_1150" style="mask-type:alpha" maskUnits="userSpaceOnUse" x="0" y="0" width="120" height="120">
<rect width="120" height="120" fill="#D9D9D9"/>
</mask>
<g mask="url(#mask0_21_1150)">
<path d="M60 105.508C54.5199 105.508 49.3265 104.565 44.4199 102.678C39.5131 100.791 35.0597 98.2011 31.0597 94.9076L20.8016 105.166L14.8342 99.1983L25.0924 88.9402C21.7989 84.9402 19.2087 80.4868 17.322 75.5801C15.4352 70.6734 14.4919 65.48 14.4919 59.9999C14.4919 47.3504 18.9349 36.6034 27.8211 27.7588C36.7072 18.9142 47.4335 14.4918 60 14.4918H105.508V59.9999C105.508 72.5664 101.086 83.2927 92.2411 92.1788C83.3965 101.065 72.6495 105.508 60 105.508ZM53.2526 84.7973L79.5787 61.2798C80.4121 60.5099 80.6571 59.5942 80.3139 58.5326C79.9705 57.471 79.2155 56.8569 78.0489 56.6902L57.4701 54.6603L69.8044 37.7516C70.1178 37.3169 70.2586 36.8664 70.2269 36.4002C70.1952 35.9339 70.0027 35.4934 69.6495 35.0787C69.2328 34.6639 68.7486 34.4564 68.197 34.4564C67.6454 34.4564 67.1624 34.6635 66.748 35.0777L40.5394 58.6018C39.6906 59.3672 39.4379 60.2807 39.7812 61.3423C40.1246 62.4039 40.8895 63.0081 42.0761 63.1548L62.6847 65.2146L50.2237 82.1183C49.955 82.5529 49.8256 83.0032 49.8356 83.4693C49.8455 83.9354 50.0588 84.3668 50.4755 84.7636C50.8722 85.2002 51.3306 85.4184 51.8505 85.4184C52.3704 85.4184 52.8378 85.2114 53.2526 84.7973Z" fill="#00B1A6"/>
</g>
</svg>
